<?xml version="1.0" encoding="UTF-8" standalone="no" ?>
<!DOCTYPE svg PUBLIC "-//W3C//DTD SVG 1.1//EN" "http://www.w3.org/Graphics/SVG/1.1/DTD/svg11.dtd">
<svg xmlns="http://www.w3.org/2000/svg" xmlns:xlink="http://www.w3.org/1999/xlink" version="1.1" width="1080" height="1080" viewBox="0 0 1080 1080" xml:space="preserve">
<defs>
</defs>
<g transform="matrix(1 0 0 1 540 540)" id="7ac75fbe-a939-4a42-99cb-de99139658c6"  >
<rect style="stroke: none; stroke-width: 1; stroke-dasharray: none; stroke-linecap: butt; stroke-dashoffset: 0; stroke-linejoin: miter; stroke-miterlimit: 4; fill: rgb(255,255,255); fill-rule: nonzero; opacity: 1; visibility: hidden;" vector-effect="non-scaling-stroke"  x="-540" y="-540" rx="0" ry="0" width="1080" height="1080" />
</g>
<g transform="matrix(1 0 0 1 540 540)" id="dadd868b-dd36-4416-a225-56ae5679cdd7"  >
</g>
<g transform="matrix(NaN NaN NaN NaN 0 0)"  >
<g style=""   >
</g>
</g>
<g transform="matrix(1.13 0 0 1.13 540 540)"  >
<path style="stroke: none; stroke-width: 1; stroke-dasharray: none; stroke-linecap: butt; stroke-dashoffset: 0; stroke-linejoin: miter; stroke-miterlimit: 4; fill: rgb(255,255,255); fill-rule: nonzero; opacity: 1;"  transform=" translate(-480, 480)" d="M 160 -240 Q 143 -240 131.5 -251.5 Q 120 -263 120 -280 Q 120 -297 131.5 -308.5 Q 143 -320 160 -320 L 800 -320 Q 817 -320 828.5 -308.5 Q 840 -297 840 -280 Q 840 -263 828.5 -251.5 Q 817 -240 800 -240 L 160 -240 Z M 160 -440 Q 143 -440 131.5 -451.5 Q 120 -463 120 -480 Q 120 -497 131.5 -508.5 Q 143 -520 160 -520 L 800 -520 Q 817 -520 828.5 -508.5 Q 840 -497 840 -480 Q 840 -463 828.5 -451.5 Q 817 -440 800 -440 L 160 -440 Z M 160 -640 Q 143 -640 131.5 -651.5 Q 120 -663 120 -680 Q 120 -697 131.5 -708.5 Q 143 -720 160 -720 L 800 -720 Q 817 -720 828.5 -708.5 Q 840 -697 840 -680 Q 840 -663 828.5 -651.5 Q 817 -640 800 -640 L 160 -640 Z" stroke-linecap="round" />
</g>
</svg>